ModelForces
version=1
nRows=5
nColumns=94
inDegrees=yes

This file contains the forces exerted on a model during a simulation.

A force is a generalized force, meaning that it can be either a force (N) or a torque (Nm).

Units are S.I. units (second, meters, Newtons, ...)
Angles are in degrees.

endheader 
time	addbrev_l	addlong_l	addmagDist_l	addmagIsch_l	addmagMid_l	addmagProx_l	bflh_l	bfsh_l	edl_l	ehl_l	fdl_l	fhl_l	gaslat_l	gasmed_l	glmax1_l	glmax2_l	glmax3_l	glmed1_l	glmed2_l	glmed3_l	glmin1_l	glmin2_l	glmin3_l	grac_l	iliacus_l	perbrev_l	perlong_l	piri_l	psoas_l	recfem_l	sart_l	semimem_l	semiten_l	soleus_l	tfl_l	tibant_l	tibpost_l	vasint_l	vaslat_l	vasmed_l	addbrev_r	addlong_r	addmagDist_r	addmagIsch_r	addmagMid_r	addmagProx_r	bflh_r	bfsh_r	edl_r	ehl_r	fdl_r	fhl_r	gaslat_r	gasmed_r	glmax1_r	glmax2_r	glmax3_r	glmed1_r	glmed2_r	glmed3_r	glmin1_r	glmin2_r	glmin3_r	grac_r	iliacus_r	perbrev_r	perlong_r	piri_r	psoas_r	recfem_r	sart_r	semimem_r	semiten_r	soleus_r	tfl_r	tibant_r	tibpost_r	vasint_r	vaslat_r	vasmed_r	lumbar_extension	lumbar_bending	lumbar_rotation	arm_flex_l	arm_add_l	arm_rot_l	arm_flex_r	arm_add_r	arm_rot_r	elbow_flex_l	elbow_flex_r	pro_sup_l	pro_sup_r	
          5.55000000	          7.32156673	         10.24695936	          5.63649051	          3.97312232	          6.21457993	          7.94830457	          2.94507093	         24.39959647	         48.67331054	         16.59711408	          4.25018516	          8.69819164	         19.83826329	         43.30127087	          8.34478509	         24.36118343	          6.60609037	          8.02563314	          6.39862024	          6.58415195	          2.58150330	          2.84112263	          2.56726932	          1.93716789	         17.29419812	         24.69260679	         65.17338050	        216.85353617	       1069.20116577	          7.24031097	        250.32318017	          6.24163297	          2.37670146	         64.90087928	          0.08702804	        147.28694881	         20.22876504	         57.33871551	        207.73054714	         85.48756801	         82.79650809	        123.22094301	          6.03153299	          6.14350943	         60.56642392	        380.30476595	         30.15316169	        123.51810433	        100.85355789	         23.53861981	          8.19240193	          8.45492104	         98.19233135	        194.31647096	          7.16420676	         18.36038184	         76.64120983	         16.89470181	          7.46858138	        191.69296626	          2.77289581	          2.74711769	          3.11417431	         40.23961898	         66.93787096	         32.62804570	         61.49570402	          3.27632875	        611.27921710	        492.42112148	        119.96054778	        271.28979289	          6.99055955	         87.88155612	          2.63875628	        342.01744523	         13.44170027	         14.60959164	         71.31588487	         23.61023502	        -58.41735155	        -22.99013984	         25.84898522	         -6.80286074	       -154.22936826	        -12.30189538	         98.48273100	        141.01540824	        -31.25374248	         92.79793033	         18.22267542	         -0.00067510	         -2.60525075	
          5.56000000	          7.29897474	         10.15684463	          5.86236854	          4.20639860	          6.42424681	          6.78907957	          3.12706688	         13.05918598	         41.26179198	          0.09295896	          5.45197795	         11.07488907	         10.76795863	         12.44445085	          8.52255430	          2.08318964	          7.10135331	          7.17673766	          6.06122996	          6.54598497	          2.28592878	          2.51379851	          2.16274749	          1.91368963	         13.70884322	          7.95375372	         62.31072693	        165.97585565	        879.34044900	          6.16795183	        243.96780585	          6.18990280	          2.36409520	         70.82049686	          0.00524176	        126.82004855	         19.97692961	         50.87802148	        184.14969719	         75.38555691	         63.08986757	         91.77337623	          5.81648792	          6.01461322	         47.47257238	        300.14303144	         26.58051967	        101.49831516	         92.35361914	         18.71316450	          3.72526843	          5.78799072	         93.72125231	        171.55965618	          7.38452996	         15.71022228	         90.77593650	         16.94770965	          7.04779317	        169.84974828	          2.83954517	          3.31352542	          3.57407468	         31.51307844	         55.50720386	         58.67164818	         68.15016739	          3.53709666	        495.50038511	        411.54222026	         99.91031260	         64.89161322	          6.89425955	         69.03744465	          2.67905726	        336.77352524	         15.38641481	         23.31091390	        122.06016237	         25.86700138	        -47.31891310	        -25.55849157	         16.29217407	         32.65855849	       -152.34585470	        -43.90732458	        112.15651285	        143.33397245	        -44.80163732	        107.99629986	          4.11762208	         -2.33830211	         -2.85073698	
          5.57000000	          7.19030607	          9.85933727	          6.13980260	          4.50087544	          6.66402631	          5.78751188	          3.60301136	         77.58847405	         60.36862870	         33.68451253	          4.02676279	          8.99107516	         43.42090015	        107.71230516	          8.81316693	        707.96617015	          6.41072304	          6.23394824	          5.75924394	          6.64031024	          1.93375778	          2.15715740	          1.79657907	          1.91903624	         10.34320163	         41.68945413	         76.54959548	        133.02712141	        701.23818022	          4.65061905	        238.36620166	          6.77411690	          2.45969418	         64.01993665	          0.00214374	        193.42333964	         15.45694629	         44.69559899	        161.94365123	         65.86454830	         47.50096731	         65.52038455	          9.57784613	          6.23029821	         36.92522809	        231.33655597	         37.57978883	         85.96979386	         72.03275818	         15.56817328	          5.35692360	          8.75948437	         72.01667533	        137.69924723	         17.17198372	         33.93932092	         75.94855230	         17.06550247	          7.46316760	        150.76587914	          3.04681116	          3.86583679	          4.25359727	         25.24468024	         45.50401126	         46.80691396	         66.98853279	          3.67444488	        397.56555984	        339.92407332	         83.53762879	        290.67227155	          7.09549449	         46.84504314	          2.54346734	        269.80518179	         19.13488202	         26.26857231	         91.00419295	         38.57367932	          6.46762186	        -38.94416137	        -26.52184674	         62.76934766	       -151.04887433	        -66.49651217	        122.46432135	        144.84172361	        -55.80067904	         84.67968822	        -14.46608369	         -3.93173137	         -2.64130884	
          5.58000000	          7.04162856	          9.61685682	          6.12595233	          4.47573536	          6.63967119	          5.52544927	          4.48165506	         59.94050219	         63.43796534	         18.25603068	          4.58477678	          9.37763214	         29.19705799	        123.05559598	          8.94464181	        765.29813449	         71.89797950	          6.12601733	          5.79987023	          6.81334940	          1.86076047	          2.12306560	          1.80468270	          1.92840974	          8.31199826	         31.10053597	         85.82598353	        110.09931006	        573.85861396	          2.84689307	        222.17648693	          7.41532167	          2.56667166	         62.94575755	          0.00160532	        193.14131071	         16.03195065	         35.69505999	        129.42314858	         52.78300572	         37.82602355	         50.79013171	          8.03842378	          6.20606079	         29.83448845	        181.38604095	         32.96279164	         71.54655836	         68.83340556	         12.09901781	          3.24742193	          5.89057401	         60.89610313	        113.59739358	         15.00265514	         29.46092770	         63.99593969	         15.94572951	          8.22803437	        129.91575762	          3.54049495	          4.42185620	          4.70975883	         20.60911345	         37.73702248	         46.15172153	         51.67365946	          3.29750956	        321.31913436	        251.16336864	         69.13044401	         70.78933329	          7.63351185	         34.93313640	          4.31643646	        231.82110340	         12.49510729	         20.14871130	         69.95334820	         29.72323169	          7.26913531	        -27.52510146	        -28.43927437	         85.19550449	        -75.66255364	        -63.05053167	         55.17914499	        136.06343975	        -35.93214948	         62.00976998	        -35.26366875	         -4.17106519	         -1.00210404	
          5.59000000	          6.90114131	          9.46874214	          5.98322014	          4.32522282	          6.49136455	          5.42955875	          1.04407521	         72.53510110	         68.17038270	         21.23610431	          4.36124644	          9.33758597	         46.75530843	        143.56892515	          9.00845470	        724.59067998	         78.65112733	          6.64213542	          6.13408993	          7.10701763	          1.98981570	          2.31516120	          2.10483053	          1.90909099	          8.47233658	         30.05792809	         90.21181568	         92.95727623	        477.22431610	          1.60146801	        189.90976494	          7.57244553	          2.58779845	         60.70433826	          0.00023085	        211.62044707	         16.52530568	         27.94391427	        101.37162417	         41.54022168	         31.85678109	         43.39821106	          6.92420009	          7.59723731	         24.77402239	        146.49908437	         28.77283830	         61.96281184	         57.08608511	         10.87074139	          3.29963967	          6.40727171	         53.56375627	        101.88726351	         12.82327124	         25.02716067	         53.37818956	         17.57546443	          6.97105434	        109.13487095	          6.29991161	          4.93256714	          4.75879358	         17.24950116	         32.34648949	         39.45927787	         53.51863487	          2.49896679	        265.28155123	        172.00667053	         57.38467320	        329.40857818	          7.23731502	         35.36089604	          0.03091838	        206.56719626	          9.84309633	         14.83372659	         51.82360269	         22.13545889	         17.00678406	        -33.22264636	        -29.38182369	        102.01863316	        -19.27365095	        -56.68146579	          5.84808183	         73.03640005	         -9.27900168	         49.84878349	        -23.68178221	         -3.55878967	          0.16521943	
